<svg xmlns="http://www.w3.org/2000/svg" xmlns:xlink="http://www.w3.org/1999/xlink">
  <defs>
    <linearGradient gradientUnits="userSpaceOnUse" x1="-819.2" x2="819.2" spreadMethod="pad" gradientTransform="matrix(-0.017791748046875 0 0 -0.010711669921875 33 119.2)" id="gradient0">
      <stop offset="0" stop-color="#406473"/>
      <stop offset="1" stop-color="#6696AA"/>
    </linearGradient>
    <linearGradient gradientUnits="userSpaceOnUse" x1="-819.2" x2="819.2" spreadMethod="pad" gradientTransform="matrix(0.0086669921875 0.0323333740234375 -0.0323638916015625 0.0086669921875 47.8 97.35)" id="gradient1">
      <stop offset="0" stop-color="#558599"/>
      <stop offset="1" stop-color="#436478"/>
    </linearGradient>
    <linearGradient gradientUnits="userSpaceOnUse" x1="-819.2" x2="819.2" spreadMethod="pad" gradientTransform="matrix(0.017791748046875 0 0 0.010711669921875 62.95 119.2)" id="gradient2">
      <stop offset="0" stop-color="#528194"/>
      <stop offset="1" stop-color="#6696AA"/>
    </linearGradient>
  </defs>
  <g>
    <path stroke="none" fill="url(#gradient0)" d="M18.5 125.5 L18.45 124.05 Q18.45 118.4 22.7 114.4 27 110.4 33.05 110.45 39.05 110.4 43.35 114.4 47.6 118.4 47.6 124.05 L47.55 125.5 47.5 125.55 Q46.85 126.5 43.35 127.2 L33.05 128 22.7 127.2 Q19.2 126.5 18.6 125.55 L18.5 125.5"/>
    <path stroke="none" fill="url(#gradient1)" d="M20.4 97.35 Q20.4 86 28.45 77.95 36.45 69.9 47.85 69.9 59.2 69.9 67.25 77.95 75.25 86 75.25 97.35 75.25 108.7 67.25 116.75 59.2 124.8 47.85 124.8 36.45 124.8 28.45 116.75 20.4 108.7 20.4 97.35"/>
    <path stroke="none" fill="url(#gradient2)" d="M48.45 125.5 L48.4 124.05 Q48.4 118.4 52.65 114.4 56.95 110.4 63 110.45 69 110.4 73.3 114.4 77.55 118.4 77.55 124.05 L77.5 125.5 77.45 125.55 Q76.8 126.5 73.3 127.2 L63 128 52.65 127.2 Q49.15 126.5 48.55 125.55 L48.45 125.5"/>
    <path stroke="none" fill="#6696AA" d="M28.85 93.15 Q27.85 92.15 26.55 92.2 25.2 92.15 24.25 93.15 23.3 94.05 23.3 95.4 23.3 96.75 24.25 97.7 25.2 98.65 26.55 98.65 27.85 98.65 28.85 97.7 29.8 96.75 29.8 95.4 29.8 94.05 28.85 93.15 M40.9 79.65 Q48.6 79.65 54.1 85.1 59.55 90.6 59.55 98.3 L59.3 101.55 Q58.4 107.25 54.1 111.55 48.6 117 40.9 117 33.15 117 27.65 111.55 23.35 107.25 22.45 101.55 22.2 100 22.2 98.3 22.2 90.6 27.65 85.1 33.15 79.65 40.9 79.65 M26.85 100.85 L24.05 100.85 Q24.85 104.9 27.9 108 32.05 112.1 37.9 112.1 43.7 112.1 47.85 108 49.6 106.2 50.6 104.1 51.35 102.55 51.7 100.85 L26.85 100.85 M48.45 92.2 Q47.1 92.15 46.15 93.15 45.2 94.05 45.2 95.4 45.2 96.75 46.15 97.7 47.1 98.65 48.45 98.65 49.75 98.65 50.75 97.7 51.7 96.75 51.7 95.4 51.7 94.05 50.75 93.15 49.75 92.15 48.45 92.2"/>
    <path stroke="none" fill="#333333" d="M48.45 92.2 Q49.75 92.15 50.75 93.15 51.7 94.05 51.7 95.4 51.7 96.75 50.75 97.7 49.75 98.65 48.45 98.65 47.1 98.65 46.15 97.7 45.2 96.75 45.2 95.4 45.2 94.05 46.15 93.15 47.1 92.15 48.45 92.2 M28.85 93.15 Q29.8 94.05 29.8 95.4 29.8 96.75 28.85 97.7 27.85 98.65 26.55 98.65 25.2 98.65 24.25 97.7 23.3 96.75 23.3 95.4 23.3 94.05 24.25 93.15 25.2 92.15 26.55 92.2 27.85 92.15 28.85 93.15 M28.1 94.5 L27.65 93.4 Q27.15 92.95 26.55 92.95 25.9 92.95 25.45 93.4 25 93.85 25 94.5 25 95.1 25.45 95.6 25.9 96 26.55 96 27.15 96 27.65 95.6 L28.1 94.5 M50 94.5 Q50 93.85 49.55 93.4 49.1 92.95 48.45 92.95 47.8 92.95 47.4 93.4 46.9 93.85 46.95 94.5 46.9 95.1 47.4 95.6 47.8 96 48.45 96 49.1 96 49.55 95.6 L50 94.5 M50.6 104.1 Q49.6 106.2 47.85 108 43.7 112.1 37.9 112.1 32.05 112.1 27.9 108 24.85 104.9 24.05 100.85 L26.85 100.85 26.85 104.1 50.6 104.1"/>
    <path stroke="none" fill="#FFFFFF" d="M50.6 104.1 L26.85 104.1 26.85 100.85 51.7 100.85 Q51.35 102.55 50.6 104.1 M28.1 94.5 L27.65 95.6 Q27.15 96 26.55 96 25.9 96 25.45 95.6 25 95.1 25 94.5 25 93.85 25.45 93.4 25.9 92.95 26.55 92.95 27.15 92.95 27.65 93.4 L28.1 94.5 M50 94.5 L49.55 95.6 Q49.1 96 48.45 96 47.8 96 47.4 95.6 46.9 95.1 46.95 94.5 46.9 93.85 47.4 93.4 47.8 92.95 48.45 92.95 49.1 92.95 49.55 93.4 50 93.85 50 94.5"/>
  </g>
</svg>